HIERARCHY
ROOT Hips
{
 OFFSET 0.000000 0.000000 0.000000
 CHANNELS 6 Xposition Yposition Zposition Yrotation Xrotation Zrotation
 JOINT Chest
 {
  OFFSET 0.000000 10.354800 0.006500
  CHANNELS 3 Yrotation Xrotation Zrotation
  JOINT Chest2
  {
   OFFSET 0.000000 10.435800 -0.013200
   CHANNELS 3 Yrotation Xrotation Zrotation
   JOINT Chest3
   {
    OFFSET 0.000000 10.393700 0.000000
    CHANNELS 3 Yrotation Xrotation Zrotation
    JOINT Chest4
    {
     OFFSET 0.000000 10.383100 0.000000
     CHANNELS 3 Yrotation Xrotation Zrotation
     JOINT Neck
     {
      OFFSET 0.000000 15.694000 0.000000
      CHANNELS 3 Yrotation Xrotation Zrotation
      JOINT Head
      {
       OFFSET 0.000000 9.711000 -0.028000
       CHANNELS 3 Yrotation Xrotation Zrotation
       End Site
       {
        OFFSET 0.000000 18.578700 -0.014800
       }
      }
     }
     JOINT RightCollar
     {
      OFFSET -3.157200 10.367500 0.000000
      CHANNELS 3 Yrotation Xrotation Zrotation
      JOINT RightShoulder
      {
       OFFSET -14.482500 0.000000 0.000000
       CHANNELS 3 Yrotation Xrotation Zrotation
       JOINT RightElbow
       {
        OFFSET 0.000000 -31.707800 0.000000
        CHANNELS 3 Yrotation Xrotation Zrotation
        JOINT RightWrist
        {
         OFFSET 0.000000 -25.659300 0.000000
         CHANNELS 3 Yrotation Xrotation Zrotation
         End Site
         {
          OFFSET 0.000000 -18.994300 0.000000
         }
        }
       }
      }
     }
     JOINT LeftCollar
     {
      OFFSET 3.157200 10.367500 0.000000
      CHANNELS 3 Yrotation Xrotation Zrotation
      JOINT LeftShoulder
      {
       OFFSET 14.482500 0.000000 0.000000
       CHANNELS 3 Yrotation Xrotation Zrotation
       JOINT LeftElbow
       {
        OFFSET 0.000000 -31.707800 0.000000
        CHANNELS 3 Yrotation Xrotation Zrotation
        JOINT LeftWrist
        {
         OFFSET 0.000000 -25.659300 0.000000
         CHANNELS 3 Yrotation Xrotation Zrotation
         End Site
         {
          OFFSET 0.000000 -18.994300 0.000000
         }
        }
       }
      }
     }
    }
   }
  }
 }
 JOINT RightHip
 {
  OFFSET -8.365600 -0.032100 -0.003200
  CHANNELS 3 Yrotation Xrotation Zrotation
  JOINT RightKnee
  {
   OFFSET 0.000000 -43.980000 0.003100
   CHANNELS 3 Yrotation Xrotation Zrotation
   JOINT RightAnkle
   {
    OFFSET 0.000000 -42.882800 0.005200
    CHANNELS 3 Yrotation Xrotation Zrotation
    JOINT RightToe
    {
     OFFSET 0.000000 -4.915500 10.826300
     CHANNELS 3 Yrotation Xrotation Zrotation
     End Site
     {
      OFFSET 0.000000 -1.517500 6.175900
     }
    }
   }
  }
 }
 JOINT LeftHip
 {
  OFFSET 8.365600 -0.032100 -0.003200
  CHANNELS 3 Yrotation Xrotation Zrotation
  JOINT LeftKnee
  {
   OFFSET 0.000000 -43.980000 0.003100
   CHANNELS 3 Yrotation Xrotation Zrotation
   JOINT LeftAnkle
   {
    OFFSET 0.000000 -42.882800 0.005200
    CHANNELS 3 Yrotation Xrotation Zrotation
    JOINT LeftToe
    {
     OFFSET 0.000000 -4.915500 10.826300
     CHANNELS 3 Yrotation Xrotation Zrotation
     End Site
     {
      OFFSET 0.000000 -1.517500 6.175900
     }
    }
   }
  }
 }
}
MOTION
Frames: 13
Frame Time: 0.008333
0.000000 91.618600 0.000000 0.000000 -5.767877 0.000000 0.000000 11.653817 0.000000 0.000000 -5.885947 0.000000 0.000000 -0.000000 0.000000 0.000000 -0.000000 0.000000 0.000000 12.528835 0.000000 0.000000 0.711642 0.000000 0.000000 -0.000000 0.000000 0.000000 0.000000 -90.000000 0.000000 -2.309062 0.000000 0.000000 2.309062 0.000000 0.000000 -0.000000 0.000000 0.000000 -0.000000 90.000000 0.000000 -2.309062 0.000000 0.000000 2.309062 0.000000 0.000000 8.520406 0.000000 0.000000 1.905762 0.000000 -0.000000 -4.658285 0.000000 0.000000 -0.000000 0.000000 0.000000 8.520406 0.000000 0.000000 1.905762 0.000000 -0.000000 -4.658285 0.000000 0.000000 -0.000000 0.000000
5.109373 126.567948 45.197896 171.921110 -21.106948 -2.221165 -0.121035 14.042851 2.291334 -0.032627 1.209684 0.202062 -0.053260 2.054639 0.333175 -0.135561 12.628115 2.057771 1.631246 17.335796 -7.848774 3.615241 -7.153117 -8.963105 11.480457 -0.546174 -9.229958 33.821878 -39.166094 -39.122827 0.272411 -39.075891 11.715960 -16.598050 -12.587587 -20.648155 -9.012135 3.598046 1.681024 -37.416437 -55.668040 31.995210 -51.757483 -19.999973 40.298604 -2.376978 -19.599003 13.986549 11.141733 -60.819707 -6.221774 -85.674531 80.166600 -78.817288 4.314938 7.611970 -16.689273 0.000758 -0.003939 0.000344 -16.947307 -61.687811 0.853798 106.963974 85.120662 100.345833 -4.751324 -24.843671 -0.018113 0.000982 0.002615 0.000446
5.109244 126.567593 45.197361 171.920630 -21.102661 -2.224209 -0.116114 14.043601 2.292044 -0.036692 1.207701 0.202328 -0.052676 2.052409 0.334811 -0.134772 12.626702 2.058911 1.629181 17.346142 -7.847117 3.608340 -7.119554 -8.954619 11.483474 -0.542177 -9.234465 33.811696 -39.156834 -39.127481 0.241406 -39.060264 11.762781 -16.653223 -12.543944 -20.601055 -9.010777 3.597450 1.682689 -37.387310 -55.671269 31.970327 -51.763366 -20.006885 40.299482 -2.394467 -19.615751 14.110767 11.151348 -60.824480 -6.227393 -85.678632 80.164103 -78.817987 4.316323 7.613419 -16.688338 0.002006 -0.004503 0.000911 -16.948867 -61.693586 0.860571 107.016349 85.119804 100.397242 -4.756034 -24.840672 -0.018184 0.001415 0.003456 0.000643
5.109260 126.567261 45.196572 171.920568 -21.099057 -2.228698 -0.107019 14.044478 2.297494 -0.042141 1.208807 0.197902 -0.042942 2.055902 0.335709 -0.140168 12.620504 2.059967 1.620758 17.378424 -7.839036 3.598761 -7.108774 -8.949941 11.480217 -0.545165 -9.231684 33.802242 -39.137747 -39.139135 0.209170 -39.011146 11.849342 -16.659426 -12.564538 -20.594982 -9.007705 3.586407 1.696375 -37.360888 -55.670015 31.937686 -51.808166 -19.990752 40.330090 -2.425838 -19.618722 14.225731 11.181763 -60.825710 -6.241704 -85.669719 80.157579 -78.799015 4.296864 7.614619 -16.680896 0.003689 -0.003695 0.001675 -16.956716 -61.697535 0.870263 107.071770 85.119363 100.452948 -4.762593 -24.845445 -0.021924 0.001391 0.004662 0.000632
5.108410 126.566419 45.196830 171.939731 -21.087284 -2.236654 -0.120476 14.035397 2.299860 -0.029490 1.215785 0.197235 -0.052492 2.051385 0.335785 -0.140754 12.620157 2.062851 1.613395 17.385408 -7.836879 3.573489 -7.036600 -8.919651 11.476642 -0.545544 -9.243393 33.781983 -39.121856 -39.144611 0.199651 -38.972902 11.924399 -16.663258 -12.612703 -20.612170 -9.006802 3.571359 1.708572 -37.338940 -55.654683 31.938406 -51.867500 -19.988992 40.371322 -2.460944 -19.609239 14.307883 11.175769 -60.836477 -6.248736 -85.652811 80.155172 -78.785093 4.288052 7.619165 -16.673301 0.002869 -0.004954 0.001303 -16.981765 -61.709992 0.877091 107.098201 85.117881 100.480298 -4.769548 -24.855329 -0.026369 0.001266 0.006244 0.000575
5.108525 126.565944 45.196325 171.945052 -21.081193 -2.244570 -0.120814 14.031572 2.306903 -0.027927 1.218200 0.194464 -0.052092 2.051044 0.336122 -0.138700 12.618649 2.069090 1.603453 17.403987 -7.831348 3.556653 -7.019000 -8.911373 11.471982 -0.545175 -9.256774 33.767050 -39.117423 -39.141975 0.226307 -38.943505 11.957162 -16.673815 -12.590037 -20.588542 -9.006845 3.556994 1.719284 -37.327029 -55.640335 31.935792 -51.895044 -19.990553 40.395179 -2.477966 -19.601698 14.338035 11.173090 -60.843875 -6.244888 -85.677983 80.153381 -78.813503 4.302014 7.617132 -16.667710 0.003613 -0.004524 0.001640 -17.001325 -61.716936 0.890302 107.191670 85.116112 100.573205 -4.765621 -24.877265 -0.030879 0.001109 0.005429 0.000503
5.108885 126.565511 45.195863 171.946535 -21.075381 -2.252502 -0.114166 14.032951 2.310028 -0.032147 1.212632 0.199132 -0.051891 2.050899 0.336232 -0.128803 12.621695 2.069006 1.589687 17.421076 -7.823700 3.548299 -7.022802 -8.908686 11.454194 -0.546954 -9.265703 33.760619 -39.115390 -39.139566 0.238075 -38.937372 11.977123 -16.653340 -12.533392 -20.544607 -9.012185 3.543664 1.738940 -37.323767 -55.608522 31.959224 -51.959934 -19.986970 40.464202 -2.501434 -19.574676 14.328687 11.173422 -60.849637 -6.245815 -85.682290 80.153587 -78.812792 4.319649 7.619924 -16.668687 0.004819 -0.004347 0.002188 -17.027772 -61.722740 0.908704 107.341002 85.120925 100.719566 -4.738367 -24.907897 -0.036758 0.000640 0.004227 0.000291
5.108280 126.564993 45.195552 171.951102 -21.068105 -2.256205 -0.108778 14.032991 2.313389 -0.031887 1.212381 0.199147 -0.051289 2.050432 0.336699 -0.116698 12.625301 2.076842 1.561019 17.437450 -7.817876 3.542531 -7.033393 -8.912265 11.430174 -0.551581 -9.283420 33.752210 -39.095592 -39.150288 0.283732 -38.921702 12.002758 -16.659335 -12.525034 -20.517365 -9.024067 3.522115 1.755187 -37.326505 -55.560007 31.998639 -51.992251 -20.014431 40.516976 -2.503793 -19.547952 14.274369 11.177933 -60.857686 -6.255001 -85.705857 80.158091 -78.834542 4.322805 7.618585 -16.666201 0.004701 -0.003800 0.002134 -17.048093 -61.731551 0.921659 107.394908 85.117582 100.768500 -4.735794 -24.929230 -0.036241 0.001671 0.002236 0.000759
5.107403 126.564574 45.195094 171.955498 -21.061981 -2.257970 -0.110133 14.032857 2.315164 -0.024410 1.216829 0.202367 -0.053024 2.048696 0.336439 -0.120727 12.619227 2.076463 1.552217 17.442330 -7.816046 3.522635 -7.014402 -8.897461 11.421481 -0.545828 -9.297457 33.758316 -39.070666 -39.174572 0.325257 -38.905763 12.019275 -16.667163 -12.511243 -20.474642 -9.022735 3.512665 1.771753 -37.314324 -55.543714 31.996532 -52.002385 -20.031884 40.532149 -2.480536 -19.527883 14.221257 11.180576 -60.866323 -6.264706 -85.735058 80.165740 -78.865664 4.317214 7.618656 -16.661083 0.001926 -0.003556 0.000874 -17.061828 -61.741795 0.929605 107.469810 85.114469 100.839368 -4.743664 -24.943583 -0.032359 0.002337 -0.001414 0.001061
5.106742 126.564468 45.194014 171.955494 -21.060333 -2.258518 -0.095313 14.040775 2.321989 -0.036023 1.208234 0.200666 -0.050450 2.050323 0.337684 -0.119569 12.619219 2.078287 1.542584 17.452933 -7.808301 3.482255 -6.997645 -8.862436 11.409385 -0.539150 -9.312434 33.774218 -39.004600 -39.223211 0.265903 -38.944709 12.068905 -16.637256 -12.459284 -20.408883 -9.021154 3.503850 1.789311 -37.301780 -55.528873 31.992625 -51.984583 -20.068425 40.520056 -2.443880 -19.510155 14.185382 11.201670 -60.869018 -6.289674 -85.771563 80.164950 -78.896954 4.351093 7.622569 -16.658473 0.000188 -0.004050 0.000085 -17.059871 -61.743675 0.924897 107.525364 85.120803 100.896573 -4.744822 -24.954085 -0.029099 0.002445 -0.002127 0.001110
5.106462 126.564368 45.193060 171.955039 -21.058531 -2.260724 -0.091232 14.040714 2.324659 -0.035040 1.210698 0.201040 -0.042091 2.052740 0.337771 -0.122059 12.617290 2.084180 1.527346 17.458211 -7.795714 3.467772 -7.005299 -8.854894 11.392736 -0.532370 -9.327311 33.781639 -38.962736 -39.253792 0.239059 -38.970781 12.102418 -16.601541 -12.413235 -20.338093 -9.025067 3.493390 1.804530 -37.263610 -55.498103 31.997140 -51.944152 -20.151651 40.485742 -2.393599 -19.500339 14.171288 11.203372 -60.871641 -6.291543 -85.781004 80.163439 -78.904741 4.351913 7.626090 -16.661706 0.000238 -0.004037 0.000108 -17.061353 -61.745736 0.923037 107.517288 85.118889 100.890800 -4.754505 -24.950922 -0.026102 0.002111 -0.002045 0.000958
5.106438 126.564170 45.192438 171.961942 -21.054620 -2.266875 -0.092573 14.038513 2.328768 -0.030800 1.212072 0.200651 -0.043374 2.050666 0.339253 -0.109405 12.614864 2.093066 1.505475 17.460153 -7.795018 3.459521 -7.007310 -8.847562 11.373626 -0.522616 -9.348317 33.773528 -38.935464 -39.263142 0.339472 -38.954467 12.082146 -16.635750 -12.428290 -20.280656 -9.035575 3.486984 1.812755 -37.216655 -55.477736 31.987095 -51.896712 -20.231166 40.433915 -2.401477 -19.506135 14.187516 11.194838 -60.875967 -6.290951 -85.788519 80.162860 -78.909897 4.349959 7.627004 -16.662019 0.000171 -0.004885 0.000077 -17.076842 -61.750575 0.926019 107.505550 85.112246 100.879412 -4.756757 -24.937904 -0.022948 0.001677 -0.001427 0.000761
5.106947 126.563450 45.193280 171.969822 -21.042149 -2.277190 -0.093358 14.028314 2.336175 -0.030575 1.211527 0.201220 -0.038893 2.049436 0.342159 -0.104740 12.610782 2.097854 1.490458 17.453298 -7.771191 3.453459 -6.998514 -8.860674 11.361292 -0.515425 -9.358959 33.764413 -38.903966 -39.272260 0.405601 -38.952434 12.067257 -16.645543 -12.424232 -20.226861 -9.022584 3.479168 1.839809 -37.163763 -55.467945 31.947991 -51.837895 -20.308166 40.372913 -2.408499 -19.523980 14.209669 11.194579 -60.884367 -6.294544 -85.766752 80.158764 -78.877067 4.325894 7.628737 -16.661702 0.000048 -0.002500 0.000022 -17.106106 -61.762842 0.945105 107.457363 85.113148 100.831252 -4.755367 -24.913866 -0.018076 0.002611 0.000513 0.001186
